<svg id="svg" version="1.1" xmlns="http://www.w3.org/2000/svg" xmlns:xlink="http://www.w3.org/1999/xlink" width="400" height="400" viewBox="0, 0, 400,400"><g id="svgg"><path id="path0" d="M196.585 77.038 C 194.285 77.677,192.849 78.393,186.948 81.846 C 184.415 83.328,176.180 88.106,168.650 92.464 C 161.120 96.821,153.173 101.420,150.992 102.683 C 148.810 103.946,144.376 106.485,141.139 108.325 C 137.901 110.166,133.468 112.705,131.286 113.969 C 129.104 115.232,126.110 116.947,124.632 117.779 C 123.154 118.610,120.793 119.960,119.386 120.778 C 116.603 122.395,104.742 129.177,102.879 130.217 C 94.668 134.797,92.092 137.547,91.004 142.894 C 90.298 146.366,90.393 254.932,91.105 257.903 C 92.588 264.089,92.711 264.186,115.035 276.901 C 120.806 280.187,127.543 284.050,130.006 285.483 C 132.470 286.917,136.788 289.389,139.603 290.978 C 142.418 292.567,146.046 294.635,147.665 295.574 C 149.283 296.513,152.220 298.210,154.191 299.345 C 156.161 300.480,160.250 302.842,163.276 304.594 C 166.302 306.345,170.736 308.910,173.129 310.293 C 177.626 312.892,182.233 315.583,188.568 319.314 C 198.200 324.985,201.117 325.086,209.714 320.043 C 212.453 318.436,216.358 316.179,230.454 308.052 C 243.472 300.547,245.655 299.285,251.567 295.845 C 253.186 294.903,255.029 293.845,255.662 293.495 C 257.317 292.579,265.473 287.910,269.226 285.730 C 270.985 284.708,274.094 282.919,276.134 281.755 C 308.188 263.467,307.199 264.193,308.512 257.951 C 309.199 254.689,309.074 144.103,308.381 141.394 C 307.141 136.544,305.375 135.050,291.747 127.326 C 287.868 125.128,286.647 124.424,279.846 120.475 C 278.017 119.412,274.734 117.536,272.553 116.306 C 270.371 115.076,267.550 113.464,266.283 112.724 C 265.016 111.983,261.964 110.232,259.501 108.832 C 257.038 107.432,246.385 101.297,235.829 95.198 C 206.868 78.467,206.548 78.287,204.351 77.497 C 201.561 76.494,199.074 76.347,196.585 77.038 M201.447 89.463 C 202.163 89.826,204.664 91.227,207.004 92.577 C 209.345 93.928,212.988 96.028,215.099 97.245 C 222.070 101.265,234.230 108.295,238.132 110.562 C 242.302 112.985,252.659 118.925,277.269 133.008 C 295.012 143.161,295.468 143.436,296.394 144.537 L 297.056 145.324 297.058 199.917 C 297.060 258.366,297.133 255.128,295.802 256.334 C 295.296 256.792,287.185 261.557,281.254 264.879 C 279.181 266.041,268.557 272.111,261.420 276.213 C 258.464 277.911,255.298 279.725,254.383 280.242 C 251.642 281.791,246.317 284.858,242.099 287.315 C 239.917 288.586,235.022 291.411,231.222 293.593 C 224.575 297.409,211.414 305.019,204.240 309.195 C 199.746 311.811,199.813 311.810,195.415 309.238 C 193.573 308.162,190.742 306.508,189.123 305.564 C 187.505 304.620,184.107 302.635,181.574 301.153 C 179.040 299.672,174.319 296.937,171.081 295.077 C 165.245 291.722,160.756 289.134,155.086 285.853 C 153.468 284.916,149.264 282.505,145.745 280.493 C 142.226 278.482,136.641 275.276,133.333 273.368 C 130.026 271.460,126.456 269.420,125.400 268.835 C 124.344 268.250,119.910 265.721,115.547 263.215 C 111.184 260.709,106.923 258.266,106.078 257.785 C 105.234 257.305,104.139 256.513,103.647 256.027 L 102.751 255.142 102.678 200.827 C 102.638 170.955,102.668 146.159,102.745 145.727 C 102.912 144.793,104.044 143.570,105.522 142.727 C 106.109 142.392,110.678 139.782,115.675 136.927 C 124.621 131.815,127.406 130.220,136.020 125.271 C 138.413 123.896,142.790 121.394,145.745 119.711 C 148.701 118.027,152.444 115.873,154.063 114.924 C 155.681 113.975,160.576 111.147,164.939 108.640 C 169.303 106.132,176.040 102.238,179.910 99.986 C 202.172 87.033,199.362 88.407,201.447 89.463 M195.339 116.927 C 194.605 117.199,192.187 118.456,189.965 119.721 C 187.743 120.986,181.318 124.635,175.688 127.830 C 170.058 131.024,164.396 134.260,163.106 135.020 C 161.816 135.780,156.864 138.634,152.101 141.362 C 143.971 146.019,137.652 149.664,130.774 153.662 C 126.338 156.241,125.160 157.639,125.151 160.333 C 125.140 163.838,125.901 164.614,133.845 169.193 C 152.240 179.794,155.167 181.445,158.892 183.313 L 162.059 184.901 164.778 184.880 C 167.991 184.856,170.029 184.262,173.512 182.334 C 177.353 180.208,184.299 176.281,187.460 174.447 C 194.550 170.335,195.458 169.800,196.782 168.953 C 199.399 167.279,199.570 167.320,205.956 171.146 C 211.331 174.365,212.832 175.240,217.570 177.910 C 221.629 180.198,221.616 180.225,214.657 184.263 C 192.475 197.135,193.834 196.114,193.877 199.872 C 193.919 203.486,195.163 204.607,205.886 210.686 C 208.138 211.963,211.624 213.939,213.632 215.077 C 221.401 219.481,221.791 219.942,219.066 221.501 C 204.404 229.884,200.732 231.862,199.828 231.862 C 198.976 231.862,197.185 230.937,189.507 226.531 C 164.470 212.162,166.387 212.427,150.864 221.196 C 148.612 222.468,144.984 224.539,142.802 225.797 C 140.621 227.055,136.963 229.162,134.674 230.479 C 127.296 234.724,126.708 235.218,126.164 237.626 C 125.639 239.953,126.335 242.249,128.101 244.015 C 130.566 246.480,130.662 246.539,153.039 259.376 C 156.910 261.597,161.401 264.188,163.020 265.135 C 166.178 266.981,174.069 271.471,182.342 276.129 C 185.157 277.715,188.209 279.444,189.123 279.973 C 193.983 282.783,195.649 283.301,199.825 283.301 C 204.510 283.301,205.713 282.824,216.251 276.777 C 218.010 275.768,222.674 273.120,226.615 270.892 C 230.557 268.665,234.702 266.301,235.829 265.640 C 236.955 264.979,239.834 263.309,242.226 261.930 C 249.253 257.880,252.496 255.995,256.302 253.749 C 258.273 252.586,261.727 250.554,263.980 249.233 C 269.985 245.713,272.671 242.821,273.885 238.570 C 274.471 236.519,274.832 190.152,274.404 171.977 C 274.020 155.683,275.819 157.771,248.369 141.757 C 243.072 138.667,219.081 124.927,210.906 120.302 C 204.118 116.461,199.369 115.432,195.339 116.927 M205.039 131.163 C 219.495 138.943,225.616 142.416,242.354 152.336 C 246.633 154.871,257.610 161.318,259.117 162.180 C 261.038 163.279,261.775 163.947,262.221 164.995 C 262.634 165.964,262.754 233.910,262.345 234.986 C 261.930 236.076,260.458 237.223,256.439 239.586 C 254.252 240.872,251.254 242.637,249.776 243.507 C 243.363 247.285,227.016 256.715,219.834 260.779 C 215.541 263.209,209.837 266.444,207.160 267.968 C 199.152 272.526,200.679 272.589,191.427 267.322 C 189.386 266.160,185.701 264.076,183.237 262.691 C 177.318 259.362,159.982 249.411,156.238 247.194 C 155.112 246.527,152.981 245.298,151.504 244.463 C 144.177 240.323,144.144 240.298,144.473 239.260 C 144.609 238.833,147.224 237.237,154.808 232.954 C 156.415 232.046,158.142 231.047,158.647 230.734 C 161.175 229.166,164.597 227.511,165.311 227.511 C 166.219 227.511,170.270 229.484,175.304 232.377 C 181.816 236.119,185.157 238.073,185.797 238.511 C 192.291 242.957,199.991 245.460,203.199 244.169 C 204.550 243.626,215.362 237.679,221.369 234.176 C 222.988 233.232,225.982 231.502,228.023 230.330 C 239.519 223.731,239.797 223.488,239.794 220.034 C 239.791 216.951,238.694 215.389,235.218 213.516 C 234.005 212.863,230.480 210.833,227.383 209.005 C 224.287 207.178,220.947 205.223,219.962 204.661 C 211.056 199.583,210.849 200.363,222.905 193.566 C 224.805 192.494,226.929 191.258,227.625 190.819 C 228.321 190.379,230.912 188.854,233.383 187.430 C 239.116 184.127,239.411 183.778,239.411 180.294 C 239.411 176.407,239.540 176.524,228.023 169.924 C 225.982 168.754,223.333 167.219,222.137 166.513 C 220.940 165.806,218.810 164.578,217.402 163.783 C 215.995 162.988,212.893 161.154,210.510 159.707 C 199.568 153.063,199.414 153.093,177.889 166.028 C 175.293 167.588,167.939 171.583,166.747 172.082 C 164.683 172.944,165.812 173.451,150.657 164.854 C 142.701 160.342,142.757 160.724,149.494 156.897 C 154.909 153.821,159.677 151.069,161.836 149.775 C 162.664 149.279,164.506 148.216,165.931 147.414 C 167.356 146.611,170.825 144.636,173.640 143.023 C 176.456 141.411,180.774 138.957,183.237 137.570 C 187.101 135.394,189.658 133.930,197.313 129.514 C 199.372 128.326,200.029 128.466,205.039 131.163 " stroke="none" fill="#fafafa" fill-rule="evenodd"></path><path id="path1" d="M190.019 8.348 C 189.597 8.405,187.524 8.572,185.413 8.719 C 176.364 9.348,168.414 10.435,161.228 12.028 C 160.454 12.200,159.360 12.436,158.797 12.554 C 158.234 12.672,157.428 12.842,157.006 12.931 C 155.188 13.315,149.797 14.649,148.838 14.952 C 148.263 15.133,147.274 15.426,146.641 15.603 C 146.008 15.780,145.259 16.018,144.978 16.131 C 144.696 16.244,144.235 16.392,143.954 16.460 C 141.073 17.160,134.060 19.582,132.249 20.503 C 132.005 20.628,131.679 20.729,131.525 20.729 C 131.185 20.729,128.415 21.819,126.225 22.815 C 125.342 23.216,124.565 23.544,124.499 23.544 C 124.433 23.544,123.506 23.948,122.439 24.440 C 121.373 24.933,120.426 25.336,120.335 25.336 C 119.945 25.336,108.253 31.315,108.253 31.514 C 108.253 31.635,108.023 31.734,107.742 31.734 C 107.460 31.734,107.230 31.821,107.230 31.927 C 107.230 32.034,106.855 32.283,106.398 32.481 C 105.940 32.679,104.959 33.226,104.218 33.695 C 103.476 34.165,102.806 34.549,102.728 34.549 C 102.651 34.549,102.085 34.894,101.472 35.317 C 100.858 35.739,100.279 36.084,100.185 36.084 C 100.091 36.084,99.043 36.718,97.855 37.492 C 96.667 38.266,95.594 38.900,95.470 38.900 C 95.346 38.900,95.206 39.000,95.159 39.124 C 95.112 39.247,94.224 39.909,93.185 40.595 C 89.360 43.122,86.415 45.166,85.957 45.612 C 85.763 45.800,85.202 46.237,84.709 46.582 C 84.216 46.927,83.640 47.348,83.429 47.517 C 80.833 49.599,80.232 50.069,79.880 50.288 C 79.654 50.429,79.295 50.724,79.082 50.944 C 78.869 51.164,78.061 51.838,77.287 52.442 C 76.513 53.045,75.361 54.020,74.728 54.607 C 74.095 55.195,73.232 55.941,72.812 56.266 C 72.391 56.590,71.118 57.738,69.982 58.818 C 68.847 59.897,67.161 61.497,66.235 62.372 C 65.309 63.247,64.485 64.140,64.402 64.355 C 64.319 64.571,64.104 64.748,63.924 64.750 C 63.743 64.751,63.308 65.119,62.956 65.567 C 62.604 66.015,61.740 66.974,61.036 67.699 C 57.876 70.952,55.849 73.123,55.309 73.832 C 54.988 74.255,54.216 75.139,53.594 75.797 C 52.972 76.456,52.463 77.070,52.463 77.163 C 52.463 77.256,51.625 78.330,50.599 79.549 C 49.574 80.768,48.395 82.226,47.978 82.790 C 47.561 83.353,47.156 83.871,47.078 83.941 C 47.000 84.012,46.656 84.472,46.312 84.965 C 45.969 85.457,45.551 86.033,45.382 86.244 C 44.512 87.333,43.270 89.057,43.022 89.519 C 42.868 89.807,42.597 90.201,42.420 90.394 C 42.243 90.587,41.983 90.924,41.843 91.144 C 41.702 91.363,40.493 93.210,39.155 95.248 C 37.818 97.286,36.580 99.174,36.403 99.444 C 36.226 99.715,36.005 100.109,35.912 100.320 C 35.819 100.531,35.416 101.185,35.018 101.774 C 34.619 102.362,34.293 102.945,34.293 103.069 C 34.293 103.193,34.086 103.518,33.832 103.791 C 33.579 104.063,32.917 105.208,32.361 106.334 C 31.805 107.460,31.293 108.439,31.222 108.509 C 30.816 108.914,24.568 121.286,24.568 121.684 C 24.568 121.775,24.280 122.479,23.928 123.249 C 23.576 124.018,23.289 124.698,23.289 124.760 C 23.289 124.822,23.012 125.481,22.675 126.224 C 21.707 128.355,21.245 129.491,20.566 131.414 C 20.218 132.399,19.836 133.436,19.717 133.717 C 19.598 133.999,19.363 134.632,19.194 135.125 C 19.025 135.617,18.783 136.251,18.656 136.532 C 18.275 137.379,16.123 144.169,16.123 144.526 C 16.123 144.708,16.019 145.057,15.892 145.301 C 15.765 145.545,15.521 146.264,15.350 146.897 C 15.180 147.530,14.939 148.337,14.815 148.688 C 14.497 149.593,13.068 155.220,12.769 156.750 C 12.631 157.454,12.402 158.548,12.261 159.181 C 12.120 159.814,11.900 160.851,11.772 161.484 C 11.644 162.118,11.430 163.154,11.295 163.788 C 10.861 165.826,9.529 174.080,9.250 176.456 C 9.101 177.722,8.830 179.968,8.648 181.446 C 8.410 183.382,8.317 188.604,8.317 200.128 C 8.317 211.652,8.410 216.874,8.648 218.810 C 8.830 220.288,9.101 222.534,9.250 223.800 C 9.399 225.067,9.864 228.177,10.284 230.710 C 11.140 235.872,11.432 237.402,12.273 241.139 C 12.408 241.737,12.632 242.802,12.772 243.506 C 13.132 245.317,14.226 249.691,14.659 251.056 C 14.861 251.689,15.168 252.726,15.343 253.359 C 15.518 253.992,15.765 254.711,15.892 254.955 C 16.019 255.199,16.123 255.560,16.123 255.756 C 16.123 256.172,18.407 263.346,18.660 263.724 C 18.754 263.864,18.978 264.440,19.157 265.003 C 19.337 265.566,19.585 266.257,19.708 266.539 C 19.832 266.820,20.218 267.857,20.566 268.842 C 21.245 270.765,21.707 271.901,22.675 274.032 C 23.012 274.775,23.289 275.434,23.289 275.496 C 23.289 275.558,23.576 276.238,23.928 277.007 C 24.280 277.777,24.568 278.481,24.568 278.572 C 24.568 278.989,30.844 291.391,31.235 291.747 C 31.312 291.817,31.694 292.556,32.083 293.388 C 32.472 294.220,33.129 295.393,33.542 295.993 C 33.955 296.594,34.293 297.162,34.293 297.255 C 34.293 297.349,34.510 297.731,34.775 298.105 C 35.041 298.479,35.559 299.326,35.928 299.987 C 36.297 300.648,37.721 302.881,39.092 304.949 C 40.464 307.017,41.702 308.895,41.843 309.121 C 41.983 309.348,42.588 310.190,43.186 310.994 C 43.784 311.797,44.274 312.545,44.275 312.657 C 44.276 312.769,44.596 313.205,44.987 313.628 C 45.378 314.050,45.976 314.798,46.317 315.291 C 46.658 315.784,47.000 316.244,47.078 316.315 C 47.156 316.385,47.557 316.903,47.968 317.466 C 48.380 318.029,49.070 318.906,49.502 319.414 C 51.429 321.678,52.342 322.810,52.433 323.046 C 52.487 323.186,52.875 323.658,53.295 324.094 C 53.716 324.531,54.476 325.406,54.984 326.040 C 55.492 326.673,56.723 328.055,57.718 329.111 C 59.404 330.899,62.758 334.489,63.340 335.128 C 63.480 335.283,63.797 335.486,64.044 335.579 C 64.290 335.672,64.504 335.896,64.520 336.076 C 64.535 336.257,65.543 337.318,66.759 338.436 C 67.975 339.553,69.834 341.286,70.889 342.287 C 71.945 343.288,73.154 344.369,73.576 344.691 C 73.999 345.012,74.862 345.760,75.496 346.353 C 76.129 346.945,77.106 347.771,77.666 348.187 C 79.101 349.254,79.545 349.604,80.590 350.498 C 81.096 350.930,81.971 351.620,82.534 352.032 C 83.097 352.443,83.615 352.844,83.685 352.922 C 83.756 353.000,84.216 353.342,84.709 353.683 C 85.202 354.023,85.763 354.456,85.957 354.644 C 86.252 354.931,88.106 356.249,90.719 358.029 C 93.578 359.978,99.050 363.535,100.013 364.072 C 100.674 364.441,101.521 364.959,101.895 365.225 C 102.269 365.490,102.651 365.707,102.745 365.707 C 102.838 365.707,103.405 366.044,104.003 366.456 C 104.602 366.868,105.573 367.413,106.161 367.668 C 106.749 367.923,107.230 368.219,107.230 368.327 C 107.230 368.434,107.460 368.522,107.742 368.522 C 108.023 368.522,108.253 368.625,108.253 368.750 C 108.253 368.963,120.996 375.432,121.417 375.432 C 121.524 375.432,121.975 375.591,122.418 375.785 C 122.862 375.980,123.628 376.313,124.120 376.526 C 124.613 376.739,125.534 377.144,126.168 377.426 C 128.267 378.360,129.348 378.795,131.158 379.434 C 132.143 379.782,133.180 380.168,133.461 380.290 C 135.612 381.227,143.558 383.877,144.215 383.877 C 144.427 383.877,144.801 383.981,145.045 384.108 C 145.289 384.235,146.008 384.479,146.641 384.649 C 147.274 384.820,148.023 385.055,148.305 385.171 C 148.762 385.361,155.057 386.921,157.006 387.327 C 157.428 387.415,158.263 387.596,158.861 387.730 C 160.607 388.118,162.017 388.415,163.660 388.740 C 167.302 389.459,167.231 389.448,176.456 390.780 C 177.441 390.922,178.880 391.091,179.655 391.155 C 197.225 392.609,216.682 392.105,229.687 389.858 C 230.953 389.639,232.623 389.357,233.397 389.231 C 234.171 389.105,235.323 388.883,235.956 388.738 C 237.399 388.409,239.626 387.986,240.885 387.802 C 241.413 387.725,241.909 387.559,241.987 387.433 C 242.065 387.307,242.469 387.204,242.884 387.204 C 243.681 387.204,247.584 386.221,252.079 384.888 C 253.557 384.450,255.112 383.996,255.534 383.880 C 258.542 383.056,262.581 381.705,264.747 380.798 C 265.029 380.680,266.008 380.332,266.923 380.025 C 268.526 379.486,272.047 378.105,273.768 377.338 C 274.226 377.134,275.003 376.795,275.496 376.583 C 277.694 375.642,278.129 375.454,279.335 374.924 C 282.133 373.697,291.112 369.157,291.491 368.778 C 291.561 368.708,292.482 368.201,293.538 367.653 C 294.594 367.105,295.763 366.443,296.137 366.182 C 296.510 365.921,296.893 365.707,296.986 365.707 C 297.080 365.707,297.640 365.390,298.231 365.003 C 299.646 364.076,300.088 363.806,301.536 362.987 C 302.204 362.608,302.751 362.202,302.751 362.083 C 302.751 361.965,302.863 361.868,303.000 361.868 C 303.363 361.868,313.622 354.955,314.012 354.448 C 314.082 354.356,315.061 353.603,316.187 352.774 C 317.313 351.945,318.760 350.802,319.403 350.233 C 320.047 349.665,321.184 348.740,321.932 348.177 C 322.679 347.614,323.894 346.605,324.632 345.936 C 325.370 345.267,326.305 344.466,326.710 344.156 C 329.080 342.345,340.438 330.926,344.594 326.176 C 345.438 325.210,346.252 324.295,346.402 324.142 C 346.552 323.989,346.782 323.673,346.914 323.439 C 347.045 323.205,347.556 322.569,348.049 322.027 C 348.541 321.484,349.519 320.293,350.222 319.381 C 351.749 317.399,352.168 316.879,352.591 316.432 C 352.767 316.247,352.911 316.017,352.911 315.921 C 352.911 315.825,353.348 315.212,353.882 314.559 C 354.417 313.906,355.049 313.084,355.289 312.732 C 355.528 312.380,356.301 311.286,357.007 310.301 C 358.639 308.022,361.872 303.151,362.522 301.991 C 362.796 301.503,363.109 300.984,363.217 300.839 C 363.588 300.343,365.451 297.360,365.451 297.261 C 365.451 297.207,365.942 296.319,366.542 295.287 C 367.143 294.255,367.805 293.065,368.014 292.642 C 368.222 292.220,368.451 291.817,368.522 291.747 C 368.749 291.520,369.318 290.443,370.742 287.544 C 371.508 285.985,372.263 284.479,372.420 284.197 C 372.982 283.192,373.625 281.874,374.170 280.614 C 374.717 279.347,375.124 278.423,376.170 276.072 C 377.272 273.596,377.670 272.644,378.228 271.145 C 378.542 270.301,378.906 269.410,379.035 269.165 C 379.165 268.921,379.271 268.599,379.271 268.449 C 379.271 268.300,379.501 267.701,379.782 267.118 C 380.064 266.535,380.294 265.906,380.294 265.719 C 380.294 265.533,380.402 265.180,380.534 264.936 C 380.905 264.248,381.971 261.187,382.873 258.221 C 383.322 256.743,383.861 255.016,384.070 254.383 C 384.279 253.749,384.538 252.885,384.646 252.463 C 384.754 252.041,385.189 250.429,385.611 248.880 C 386.033 247.332,386.442 245.720,386.520 245.298 C 386.597 244.875,386.771 244.069,386.907 243.506 C 388.381 237.368,389.502 231.143,390.318 224.568 C 391.416 215.718,391.678 211.015,391.678 200.128 C 391.678 190.200,391.553 187.366,390.780 179.782 C 390.031 172.423,388.805 164.862,387.420 159.053 C 387.150 157.922,386.815 156.425,386.459 154.766 C 386.066 152.938,384.646 147.664,384.064 145.873 C 383.858 145.240,383.322 143.512,382.873 142.035 C 381.971 139.069,380.905 136.007,380.534 135.320 C 380.402 135.076,380.294 134.723,380.294 134.537 C 380.294 134.350,380.064 133.721,379.782 133.138 C 379.501 132.555,379.271 131.956,379.271 131.807 C 379.271 131.657,379.165 131.335,379.035 131.091 C 378.906 130.846,378.542 129.955,378.228 129.111 C 377.597 127.417,377.232 126.559,375.176 121.945 C 374.862 121.241,374.375 120.147,374.093 119.514 C 373.516 118.219,372.946 117.053,372.155 115.547 C 371.859 114.984,371.110 113.484,370.492 112.214 C 369.335 109.841,368.747 108.734,368.522 108.509 C 368.451 108.439,368.222 108.036,368.014 107.614 C 367.805 107.191,367.143 106.001,366.542 104.969 C 365.942 103.937,365.451 103.058,365.451 103.015 C 365.451 102.915,360.971 95.778,359.662 93.794 C 358.244 91.645,357.182 90.149,354.894 87.076 C 353.804 85.611,352.911 84.357,352.911 84.291 C 352.911 84.224,352.566 83.801,352.144 83.351 C 351.723 82.902,351.377 82.465,351.377 82.381 C 351.376 82.297,351.134 81.951,350.838 81.613 C 350.543 81.275,349.938 80.554,349.495 80.010 C 349.051 79.467,348.317 78.604,347.863 78.091 C 347.408 77.579,347.034 77.091,347.031 77.007 C 347.028 76.922,346.823 76.622,346.577 76.339 C 342.621 71.791,340.464 69.491,335.486 64.514 C 330.480 59.507,325.698 55.039,323.685 53.487 C 321.987 52.177,320.153 50.678,319.302 49.904 C 318.760 49.411,318.126 48.901,317.892 48.770 C 317.550 48.578,315.110 46.742,313.884 45.754 C 313.612 45.534,311.142 43.763,308.861 42.150 C 306.634 40.577,303.233 38.388,303.015 38.388 C 302.905 38.388,302.663 38.207,302.480 37.985 C 302.296 37.764,301.735 37.359,301.233 37.087 C 300.214 36.533,299.787 36.272,298.231 35.253 C 297.640 34.866,297.101 34.549,297.032 34.549 C 296.963 34.549,296.063 34.058,295.031 33.458 C 293.999 32.857,292.809 32.195,292.386 31.986 C 291.964 31.778,291.561 31.549,291.491 31.478 C 291.236 31.223,289.999 30.575,285.349 28.266 C 280.979 26.095,279.313 25.305,277.287 24.444 C 276.380 24.058,275.163 23.532,273.576 22.841 C 272.943 22.565,271.734 22.077,270.889 21.756 C 270.045 21.435,269.123 21.084,268.842 20.976 C 268.560 20.868,267.639 20.526,266.795 20.218 C 265.950 19.909,265.029 19.562,264.747 19.448 C 263.062 18.765,260.642 17.930,258.861 17.418 C 257.735 17.094,256.583 16.737,256.302 16.625 C 256.020 16.513,255.560 16.366,255.278 16.297 C 254.997 16.229,253.615 15.827,252.207 15.403 C 250.800 14.980,248.669 14.389,247.473 14.089 C 246.276 13.790,244.944 13.434,244.512 13.298 C 244.079 13.163,243.366 13.052,242.927 13.052 C 242.488 13.052,242.067 12.952,241.992 12.830 C 241.916 12.708,241.362 12.537,240.761 12.451 C 239.652 12.293,238.045 11.982,235.956 11.522 C 234.216 11.138,229.441 10.329,227.063 10.014 C 217.054 8.690,213.467 8.458,201.280 8.342 C 195.509 8.287,190.441 8.290,190.019 8.348 M203.261 77.015 C 205.452 77.575,206.690 78.159,210.877 80.608 C 216.119 83.674,219.887 85.860,223.544 87.957 C 228.942 91.053,231.165 92.336,244.658 100.146 C 251.484 104.098,257.903 107.798,258.921 108.368 C 259.939 108.938,263.337 110.885,266.471 112.694 C 269.605 114.504,273.148 116.529,274.344 117.196 C 275.541 117.862,278.074 119.308,279.974 120.407 C 281.875 121.507,284.761 123.166,286.388 124.095 C 305.289 134.884,305.708 135.177,307.605 138.953 C 309.148 142.026,309.072 138.697,309.019 200.512 C 308.966 261.642,309.050 258.111,307.576 261.129 C 305.617 265.141,305.798 265.019,279.718 279.879 C 274.002 283.136,272.813 283.822,270.303 285.314 C 268.796 286.210,266.353 287.601,264.875 288.404 C 262.532 289.678,255.707 293.592,245.681 299.410 C 236.489 304.745,220.494 313.977,219.066 314.772 C 218.151 315.281,216.308 316.339,214.971 317.122 C 206.357 322.167,205.340 322.688,202.825 323.340 C 198.757 324.397,195.401 323.530,189.166 319.813 C 187.665 318.917,182.694 316.017,178.119 313.367 C 173.544 310.716,167.901 307.438,165.579 306.082 C 163.257 304.725,159.687 302.654,157.646 301.479 C 155.605 300.304,152.495 298.514,150.736 297.501 C 145.517 294.496,140.587 291.684,137.044 289.691 C 135.214 288.662,132.853 287.303,131.798 286.672 C 129.099 285.060,123.350 281.791,120.921 280.488 C 119.795 279.884,118.413 279.079,117.850 278.699 C 117.287 278.319,116.020 277.564,115.035 277.022 C 114.050 276.479,110.940 274.715,108.125 273.100 C 105.310 271.486,101.798 269.477,100.320 268.636 C 94.340 265.233,92.275 262.917,91.090 258.284 C 90.287 255.146,90.319 145.451,91.123 142.024 C 92.175 137.545,94.560 134.807,100.192 131.616 C 101.177 131.057,104.056 129.409,106.590 127.953 C 109.123 126.496,111.945 124.884,112.860 124.370 C 113.775 123.856,118.093 121.380,122.457 118.870 C 130.741 114.103,132.510 113.092,136.864 110.636 C 138.314 109.818,140.444 108.589,141.599 107.905 C 142.753 107.221,144.677 106.119,145.873 105.457 C 147.070 104.794,152.482 101.679,157.901 98.535 C 167.399 93.024,172.265 90.207,178.247 86.756 C 179.795 85.863,183.384 83.777,186.221 82.121 C 195.939 76.449,198.292 75.744,203.261 77.015 M197.313 90.038 C 196.398 90.575,193.980 91.976,191.939 93.151 C 186.833 96.090,182.582 98.568,179.399 100.461 C 177.921 101.339,172.393 104.534,167.115 107.561 C 161.836 110.587,156.193 113.836,154.575 114.780 C 152.956 115.724,150.250 117.279,148.560 118.235 C 146.871 119.191,144.856 120.341,144.082 120.790 C 142.110 121.933,136.447 125.186,132.054 127.698 C 130.013 128.865,127.191 130.482,125.784 131.291 C 121.726 133.623,117.744 135.895,115.803 136.985 C 114.818 137.539,112.860 138.654,111.452 139.465 C 110.045 140.275,107.970 141.468,106.842 142.116 C 104.663 143.365,103.895 143.977,103.233 144.988 C 102.859 145.558,102.823 150.530,102.826 200.281 L 102.830 254.948 103.677 255.822 C 104.143 256.302,105.565 257.311,106.837 258.063 C 110.073 259.978,114.431 262.481,116.699 263.727 C 117.754 264.307,120.576 265.918,122.969 267.307 C 125.361 268.696,128.304 270.371,129.507 271.029 C 130.710 271.687,132.744 272.847,134.027 273.605 C 135.310 274.363,137.838 275.828,139.645 276.860 C 145.468 280.184,150.550 283.091,152.911 284.448 C 158.694 287.772,162.866 290.178,165.579 291.752 C 167.198 292.691,170.192 294.418,172.233 295.590 C 179.824 299.949,185.124 303.026,192.834 307.552 C 196.860 309.915,199.309 311.196,199.799 311.196 C 200.315 311.196,203.181 309.731,206.259 307.893 C 207.602 307.092,210.371 305.476,212.412 304.304 C 214.453 303.132,217.447 301.395,219.066 300.445 C 220.685 299.495,225.176 296.901,229.047 294.681 C 232.917 292.461,237.582 289.780,239.411 288.723 C 241.241 287.666,243.372 286.436,244.146 285.989 C 244.920 285.543,247.511 284.044,249.904 282.658 C 252.297 281.273,255.176 279.629,256.302 279.006 C 257.428 278.384,259.271 277.326,260.397 276.656 C 261.523 275.986,263.365 274.920,264.491 274.287 C 265.617 273.654,268.093 272.238,269.994 271.139 C 271.894 270.040,274.715 268.432,276.264 267.566 C 277.812 266.699,281.036 264.855,283.429 263.468 C 285.822 262.081,288.759 260.409,289.955 259.752 C 292.864 258.156,295.598 256.377,296.225 255.672 C 297.042 254.754,297.162 146.030,296.348 144.713 C 295.784 143.800,294.676 143.030,291.107 141.066 C 289.840 140.369,285.349 137.811,281.126 135.382 C 276.903 132.952,272.585 130.479,271.529 129.886 C 268.961 128.443,255.813 120.904,246.321 115.432 C 242.099 112.998,236.628 109.850,234.165 108.436 C 228.841 105.382,224.309 102.752,221.497 101.084 C 220.371 100.417,218.528 99.353,217.402 98.720 C 216.276 98.087,213.109 96.266,210.365 94.674 C 199.294 88.251,199.957 88.487,197.313 90.038 M204.416 116.896 C 206.244 117.487,205.830 117.259,226.488 129.044 C 247.098 140.803,264.057 150.660,267.678 152.985 C 269.684 154.273,271.529 156.324,272.734 158.605 C 274.750 162.420,274.632 159.683,274.548 200.896 L 274.472 237.620 273.815 239.307 C 271.615 244.952,270.753 245.599,247.601 258.979 C 235.010 266.256,232.393 267.762,228.023 270.245 C 225.841 271.485,222.444 273.417,220.473 274.537 C 204.529 283.603,204.651 283.550,199.872 283.550 C 195.169 283.550,195.031 283.491,180.889 275.465 C 164.666 266.256,165.533 266.752,157.646 262.191 C 155.745 261.093,150.678 258.178,146.385 255.715 C 133.972 248.591,132.529 247.740,130.884 246.570 C 123.928 241.623,124.033 236.386,131.169 232.335 C 133.914 230.777,140.229 227.132,143.954 224.956 C 158.224 216.620,161.462 215.136,165.323 215.162 C 169.249 215.187,170.733 215.694,176.583 219.004 C 178.202 219.920,181.369 221.708,183.621 222.978 C 185.873 224.248,188.464 225.745,189.379 226.305 C 192.186 228.022,198.758 231.573,199.448 231.747 C 200.315 231.964,205.706 229.114,216.827 222.558 C 221.934 219.547,222.132 219.879,211.900 214.302 C 196.200 205.744,193.717 203.750,193.736 199.714 C 193.750 196.612,194.792 195.651,203.839 190.399 C 207.780 188.112,212.329 185.468,213.948 184.526 C 215.566 183.583,217.547 182.442,218.348 181.990 C 220.969 180.513,220.722 179.905,216.511 177.479 C 209.986 173.719,206.816 171.851,204.085 170.157 C 199.513 167.322,199.671 167.326,195.445 169.899 C 186.139 175.564,172.079 183.419,169.838 184.205 C 163.788 186.328,162.404 185.835,143.058 174.655 C 141.299 173.639,137.210 171.276,133.973 169.406 C 126.078 164.843,125.534 164.360,125.009 161.447 C 124.376 157.933,125.877 156.227,133.341 151.971 C 136.222 150.327,139.616 148.381,140.883 147.645 C 142.150 146.909,146.641 144.327,150.864 141.907 C 155.086 139.487,160.096 136.607,161.996 135.507 C 163.896 134.407,166.603 132.858,168.010 132.063 C 171.827 129.910,174.666 128.277,177.095 126.837 C 178.292 126.128,180.250 125.019,181.446 124.372 C 183.420 123.304,184.916 122.459,191.299 118.800 C 195.589 116.342,196.161 116.177,200.000 116.293 C 201.928 116.351,203.319 116.541,204.416 116.896 M198.981 128.918 C 198.702 128.987,196.226 130.336,193.479 131.917 C 190.732 133.498,187.274 135.456,185.797 136.268 C 184.319 137.081,181.958 138.406,180.550 139.214 C 177.641 140.884,172.245 143.971,166.987 146.972 C 165.016 148.096,162.367 149.629,161.100 150.377 C 159.834 151.125,155.702 153.511,151.918 155.678 C 143.408 160.554,143.444 160.503,146.965 162.535 C 147.983 163.122,150.141 164.379,151.759 165.328 C 157.128 168.473,164.104 172.258,164.782 172.392 C 165.943 172.621,171.976 169.425,184.581 161.905 C 198.885 153.371,200.046 153.294,211.482 160.108 C 219.705 165.007,225.103 168.152,232.330 172.256 C 238.844 175.955,239.539 176.731,239.539 180.294 C 239.539 183.772,239.033 184.367,233.214 187.728 C 230.992 189.011,228.517 190.455,227.714 190.936 C 226.911 191.417,224.925 192.559,223.300 193.474 C 220.867 194.845,217.439 196.889,214.012 199.015 C 212.506 199.949,213.226 200.719,218.042 203.324 C 219.379 204.048,221.222 205.114,222.137 205.694 C 224.076 206.923,233.587 212.478,235.829 213.691 C 238.614 215.198,239.749 216.732,239.980 219.303 C 240.305 222.919,239.202 224.141,231.857 228.313 C 226.067 231.601,222.789 233.476,218.938 235.703 C 205.168 243.663,203.473 244.493,200.741 244.613 C 196.756 244.788,194.636 243.848,181.318 236.002 C 171.846 230.421,166.733 227.767,165.455 227.767 C 164.281 227.767,160.373 229.806,150.224 235.710 C 148.605 236.652,146.740 237.727,146.078 238.100 C 143.452 239.581,143.648 239.810,151.308 244.208 C 154.864 246.250,160.422 249.450,163.660 251.321 C 171.814 256.032,180.620 261.056,192.067 267.528 C 200.355 272.214,199.469 272.158,206.014 268.411 C 208.618 266.920,212.418 264.780,214.459 263.656 C 216.500 262.531,219.034 261.115,220.090 260.508 C 221.145 259.902,223.564 258.516,225.464 257.429 C 229.594 255.065,234.242 252.379,238.260 250.033 C 239.878 249.088,242.297 247.680,243.634 246.903 C 259.744 237.546,260.963 236.800,261.651 235.874 C 262.416 234.845,262.606 224.788,262.480 191.939 C 262.362 160.905,262.949 164.435,257.382 161.322 C 254.805 159.881,251.990 158.238,246.705 155.090 C 242.024 152.302,240.073 151.153,233.909 147.552 C 230.601 145.620,226.859 143.430,225.592 142.686 C 217.516 137.941,201.329 129.231,200.000 128.914 C 199.718 128.847,199.260 128.849,198.981 128.918 " stroke="none" fill="#040404" fill-rule="evenodd"></path><path id="path2" d="M189.060 8.370 C 189.376 8.431,189.894 8.431,190.211 8.370 C 190.528 8.309,190.269 8.259,189.635 8.259 C 189.002 8.259,188.743 8.309,189.060 8.370 M209.277 8.370 C 209.594 8.431,210.112 8.431,210.429 8.370 C 210.745 8.309,210.486 8.259,209.853 8.259 C 209.219 8.259,208.960 8.309,209.277 8.370 M179.722 9.141 C 180.111 9.200,180.687 9.198,181.002 9.137 C 181.316 9.077,180.998 9.028,180.294 9.030 C 179.591 9.032,179.333 9.082,179.722 9.141 M218.877 9.141 C 219.266 9.200,219.842 9.198,220.157 9.137 C 220.472 9.077,220.154 9.028,219.450 9.030 C 218.746 9.032,218.488 9.082,218.877 9.141 M174.987 9.650 C 175.305 9.711,175.766 9.709,176.011 9.645 C 176.255 9.581,175.995 9.531,175.432 9.534 C 174.869 9.536,174.669 9.589,174.987 9.650 M223.867 9.650 C 224.186 9.711,224.646 9.709,224.891 9.645 C 225.136 9.581,224.875 9.531,224.312 9.534 C 223.749 9.536,223.549 9.589,223.867 9.650 M322.329 52.463 C 322.584 52.745,322.907 52.975,323.047 52.975 C 323.188 52.975,323.037 52.745,322.713 52.463 C 322.388 52.182,322.065 51.951,321.994 51.951 C 321.923 51.951,322.074 52.182,322.329 52.463 M69.428 59.123 C 68.835 59.683,68.437 60.141,68.544 60.141 C 68.651 60.141,69.188 59.680,69.738 59.117 C 71.024 57.800,70.825 57.804,69.428 59.123 M331.139 60.225 C 331.791 60.943,331.931 61.032,331.918 60.717 C 331.913 60.611,331.597 60.304,331.214 60.033 L 330.518 59.542 331.139 60.225 M339.603 68.714 C 339.934 69.066,340.247 69.354,340.300 69.354 C 340.512 69.354,339.458 68.090,339.239 68.082 C 339.109 68.078,339.273 68.362,339.603 68.714 M59.395 69.060 C 59.196 69.292,58.738 69.827,58.378 70.250 C 58.017 70.672,58.232 70.532,58.855 69.938 C 59.478 69.345,59.936 68.810,59.872 68.749 C 59.809 68.688,59.594 68.828,59.395 69.060 M296.938 147.025 C 296.940 147.729,296.990 147.986,297.049 147.597 C 297.107 147.208,297.106 146.632,297.045 146.318 C 296.984 146.003,296.936 146.321,296.938 147.025 M102.740 168.266 C 102.740 174.178,102.774 176.560,102.815 173.559 C 102.856 170.559,102.856 165.722,102.815 162.811 C 102.774 159.899,102.740 162.354,102.740 168.266 M124.953 160.589 C 124.955 161.152,125.008 161.352,125.069 161.033 C 125.130 160.715,125.128 160.254,125.064 160.010 C 125.000 159.765,124.950 160.026,124.953 160.589 M308.963 165.835 C 308.963 166.468,309.013 166.727,309.074 166.411 C 309.135 166.094,309.135 165.576,309.074 165.259 C 309.013 164.942,308.963 165.202,308.963 165.835 M262.425 171.721 C 262.425 174.888,262.462 176.184,262.507 174.600 C 262.552 173.017,262.552 170.425,262.507 168.842 C 262.462 167.258,262.425 168.554,262.425 171.721 M390.340 176.200 C 390.342 176.763,390.395 176.963,390.456 176.644 C 390.517 176.326,390.515 175.865,390.451 175.621 C 390.387 175.376,390.337 175.637,390.340 176.200 M8.766 179.782 C 8.769 180.345,8.821 180.546,8.882 180.227 C 8.943 179.909,8.941 179.448,8.877 179.204 C 8.813 178.959,8.763 179.219,8.766 179.782 M102.724 184.133 C 102.725 186.104,102.765 186.876,102.813 185.849 C 102.862 184.823,102.862 183.210,102.813 182.266 C 102.764 181.323,102.724 182.163,102.724 184.133 M8.273 186.436 C 8.274 187.422,8.321 187.793,8.376 187.262 C 8.432 186.731,8.431 185.925,8.374 185.471 C 8.318 185.017,8.272 185.451,8.273 186.436 M262.375 186.308 C 262.375 186.801,262.428 187.003,262.492 186.756 C 262.557 186.510,262.557 186.107,262.492 185.861 C 262.428 185.614,262.375 185.816,262.375 186.308 M391.624 189.891 C 391.624 190.525,391.674 190.784,391.735 190.467 C 391.796 190.150,391.796 189.632,391.735 189.315 C 391.674 188.999,391.624 189.258,391.624 189.891 M391.624 210.365 C 391.624 210.998,391.674 211.257,391.735 210.940 C 391.796 210.624,391.796 210.106,391.735 209.789 C 391.674 209.472,391.624 209.731,391.624 210.365 M8.273 213.820 C 8.274 214.805,8.321 215.177,8.376 214.646 C 8.432 214.115,8.431 213.308,8.374 212.854 C 8.318 212.400,8.272 212.834,8.273 213.820 M102.725 215.995 C 102.725 218.036,102.765 218.871,102.813 217.850 C 102.862 216.830,102.862 215.160,102.813 214.139 C 102.765 213.119,102.725 213.954,102.725 215.995 M262.375 213.948 C 262.375 214.440,262.428 214.642,262.492 214.395 C 262.557 214.149,262.557 213.746,262.492 213.500 C 262.428 213.253,262.375 213.455,262.375 213.948 M164.491 215.152 C 164.808 215.213,165.326 215.213,165.643 215.152 C 165.960 215.091,165.701 215.041,165.067 215.041 C 164.434 215.041,164.175 215.091,164.491 215.152 M8.766 220.473 C 8.769 221.036,8.821 221.237,8.882 220.918 C 8.943 220.600,8.941 220.139,8.877 219.895 C 8.813 219.650,8.763 219.910,8.766 220.473 M102.741 232.630 C 102.741 238.752,102.774 241.257,102.815 238.196 C 102.856 235.134,102.856 230.125,102.815 227.063 C 102.774 224.002,102.741 226.507,102.741 232.630 M262.425 227.895 C 262.425 230.992,262.462 232.223,262.507 230.632 C 262.552 229.041,262.552 226.507,262.507 225.002 C 262.462 223.496,262.425 224.798,262.425 227.895 M390.340 224.056 C 390.342 224.619,390.395 224.820,390.456 224.501 C 390.517 224.183,390.515 223.722,390.451 223.478 C 390.387 223.233,390.337 223.493,390.340 224.056 M389.823 228.279 C 389.823 228.772,389.875 228.973,389.940 228.727 C 390.004 228.480,390.004 228.077,389.940 227.831 C 389.875 227.585,389.823 227.786,389.823 228.279 M308.963 234.421 C 308.963 235.054,309.013 235.313,309.074 234.997 C 309.135 234.680,309.135 234.162,309.074 233.845 C 309.013 233.528,308.963 233.788,308.963 234.421 M296.942 252.847 C 296.942 253.621,296.990 253.938,297.048 253.551 C 297.107 253.164,297.107 252.530,297.048 252.143 C 296.990 251.756,296.942 252.073,296.942 252.847 M305.166 264.427 L 304.415 265.259 305.246 264.507 C 306.022 263.807,306.196 263.596,305.998 263.596 C 305.954 263.596,305.580 263.970,305.166 264.427 M347.538 322.584 C 347.208 322.935,346.986 323.265,347.045 323.318 C 347.104 323.370,347.421 323.083,347.748 322.679 C 348.481 321.776,348.352 321.717,347.538 322.584 M58.479 330.121 C 59.753 331.587,59.885 331.715,59.885 331.484 C 59.885 331.362,59.396 330.807,58.799 330.250 C 57.806 329.326,57.779 329.315,58.479 330.121 M68.645 340.435 C 70.408 342.037,70.749 342.273,69.750 341.201 C 69.193 340.604,68.638 340.115,68.516 340.115 C 68.394 340.115,68.452 340.259,68.645 340.435 M174.600 390.707 C 174.846 390.772,175.250 390.772,175.496 390.707 C 175.742 390.643,175.541 390.590,175.048 390.590 C 174.555 390.590,174.354 390.643,174.600 390.707 M179.338 391.224 C 179.656 391.285,180.117 391.283,180.361 391.219 C 180.606 391.155,180.345 391.105,179.782 391.107 C 179.219 391.110,179.019 391.163,179.338 391.224 M219.258 391.223 C 219.575 391.284,220.093 391.284,220.409 391.223 C 220.726 391.162,220.467 391.113,219.834 391.113 C 219.200 391.113,218.941 391.162,219.258 391.223 M185.349 391.738 C 185.736 391.797,186.369 391.797,186.756 391.738 C 187.143 391.679,186.827 391.631,186.052 391.631 C 185.278 391.631,184.962 391.679,185.349 391.738 M212.991 391.738 C 213.380 391.797,213.956 391.796,214.271 391.735 C 214.586 391.674,214.267 391.626,213.564 391.628 C 212.860 391.630,212.602 391.680,212.991 391.738 M189.447 391.994 C 189.836 392.053,190.412 392.052,190.726 391.991 C 191.041 391.930,190.723 391.882,190.019 391.884 C 189.315 391.886,189.058 391.935,189.447 391.994 M209.153 391.994 C 209.542 392.053,210.117 392.052,210.432 391.991 C 210.747 391.930,210.429 391.882,209.725 391.884 C 209.021 391.886,208.764 391.935,209.153 391.994 " stroke="none" fill="#5a5a5a" fill-rule="evenodd"></path><path id="path3" d="M182.406 8.626 C 182.722 8.687,183.241 8.687,183.557 8.626 C 183.874 8.565,183.615 8.515,182.981 8.515 C 182.348 8.515,182.089 8.565,182.406 8.626 M216.062 8.629 C 216.451 8.688,217.027 8.686,217.342 8.625 C 217.657 8.565,217.338 8.517,216.635 8.518 C 215.931 8.520,215.673 8.570,216.062 8.629 M176.961 9.223 C 176.853 9.398,177.046 9.430,177.522 9.315 C 178.502 9.080,178.595 8.957,177.793 8.957 C 177.426 8.957,177.052 9.077,176.961 9.223 M221.390 9.049 C 221.449 9.100,221.843 9.218,222.265 9.313 C 222.826 9.438,222.929 9.414,222.649 9.225 C 222.303 8.991,221.134 8.828,221.390 9.049 M155.214 13.052 C 155.027 13.355,155.278 13.355,155.982 13.052 C 156.476 12.840,156.474 12.831,155.933 12.814 C 155.625 12.804,155.301 12.911,155.214 13.052 M243.122 12.894 C 243.122 12.948,243.410 13.047,243.762 13.114 C 244.114 13.182,244.402 13.138,244.402 13.016 C 244.402 12.895,244.114 12.796,243.762 12.796 C 243.410 12.796,243.122 12.840,243.122 12.894 M253.359 15.599 C 253.570 15.742,253.964 15.861,254.233 15.863 C 254.888 15.868,254.684 15.722,253.743 15.511 C 253.182 15.386,253.079 15.410,253.359 15.599 M310.649 43.235 C 310.981 43.525,311.375 43.762,311.523 43.762 C 311.838 43.762,311.823 43.749,310.813 43.158 L 310.045 42.708 310.649 43.235 M71.439 56.968 C 71.249 57.183,71.144 57.410,71.206 57.472 C 71.268 57.534,71.528 57.354,71.784 57.071 C 72.039 56.789,72.144 56.562,72.017 56.568 C 71.889 56.573,71.629 56.753,71.439 56.968 M327.575 56.750 C 327.575 56.858,327.806 57.090,328.087 57.266 C 328.369 57.442,328.599 57.497,328.599 57.389 C 328.599 57.281,328.369 57.049,328.087 56.873 C 327.806 56.697,327.575 56.642,327.575 56.750 M56.596 71.812 C 56.406 72.027,56.301 72.253,56.363 72.315 C 56.425 72.377,56.685 72.197,56.940 71.915 C 57.196 71.632,57.301 71.406,57.173 71.411 C 57.046 71.416,56.786 71.597,56.596 71.812 M53.760 75.131 C 53.303 75.634,52.977 76.095,53.037 76.155 C 53.097 76.214,53.516 75.803,53.968 75.240 C 54.989 73.969,54.873 73.908,53.760 75.131 M198.523 116.372 C 198.977 116.428,199.783 116.429,200.314 116.374 C 200.845 116.318,200.473 116.272,199.488 116.271 C 198.503 116.270,198.068 116.315,198.523 116.372 M304.926 135.637 C 305.476 136.200,305.984 136.660,306.054 136.660 C 306.124 136.660,305.732 136.200,305.182 135.637 C 304.633 135.074,304.125 134.613,304.055 134.613 C 303.984 134.613,304.377 135.074,304.926 135.637 M94.546 135.701 L 93.794 136.532 94.626 135.781 C 95.401 135.080,95.575 134.869,95.377 134.869 C 95.333 134.869,94.959 135.243,94.546 135.701 M383.522 143.698 C 383.732 144.639,383.878 144.843,383.873 144.189 C 383.871 143.919,383.752 143.525,383.610 143.314 C 383.420 143.034,383.396 143.137,383.522 143.698 M309.007 151.887 C 309.007 156.251,309.042 158.072,309.084 155.934 C 309.127 153.796,309.127 150.226,309.085 148.001 C 309.042 145.775,309.007 147.524,309.007 151.887 M15.003 146.779 C 14.915 147.008,14.853 147.387,14.865 147.622 C 14.877 147.857,14.989 147.709,15.113 147.294 C 15.354 146.486,15.269 146.086,15.003 146.779 M296.984 165.579 C 296.984 172.828,297.017 175.793,297.057 172.169 C 297.097 168.544,297.097 162.614,297.057 158.989 C 297.017 155.365,296.984 158.330,296.984 165.579 M386.857 156.110 C 387.060 157.214,387.205 157.422,387.200 156.601 C 387.198 156.260,387.083 155.809,386.945 155.598 C 386.768 155.328,386.742 155.480,386.857 156.110 M11.676 160.087 C 11.588 160.315,11.526 160.695,11.538 160.929 C 11.550 161.164,11.662 161.017,11.786 160.601 C 12.027 159.794,11.942 159.394,11.676 160.087 M11.047 163.447 C 11.024 163.893,10.930 164.469,10.839 164.726 C 10.712 165.085,10.746 165.128,10.984 164.909 C 11.166 164.742,11.253 164.208,11.193 163.629 C 11.102 162.747,11.086 162.727,11.047 163.447 M260.525 163.100 C 260.525 163.144,260.899 163.518,261.356 163.932 L 262.188 164.683 261.436 163.852 C 260.736 163.076,260.525 162.902,260.525 163.100 M274.455 170.186 C 274.455 173.634,274.491 175.045,274.535 173.321 C 274.580 171.596,274.580 168.775,274.535 167.051 C 274.491 165.326,274.455 166.737,274.455 170.186 M308.953 167.882 C 308.953 168.375,309.005 168.576,309.070 168.330 C 309.134 168.084,309.134 167.681,309.070 167.434 C 309.005 167.188,308.953 167.390,308.953 167.882 M390.702 177.991 C 390.896 179.256,391.044 179.471,391.039 178.482 C 391.037 178.071,390.925 177.562,390.790 177.351 C 390.624 177.090,390.596 177.294,390.702 177.991 M102.683 179.655 C 102.683 180.147,102.735 180.349,102.800 180.102 C 102.864 179.856,102.864 179.453,102.800 179.207 C 102.735 178.960,102.683 179.162,102.683 179.655 M219.615 179.271 C 219.847 179.552,220.093 180.013,220.161 180.294 C 220.281 180.787,220.287 180.786,220.316 180.270 C 220.332 179.975,220.086 179.514,219.770 179.246 C 219.199 178.763,219.197 178.763,219.615 179.271 M296.968 184.517 C 296.968 186.699,297.007 187.591,297.055 186.500 C 297.103 185.409,297.103 183.624,297.055 182.534 C 297.007 181.443,296.968 182.335,296.968 184.517 M8.349 181.840 C 8.261 182.068,8.203 182.563,8.219 182.938 C 8.241 183.450,8.298 183.364,8.448 182.598 C 8.660 181.510,8.613 181.152,8.349 181.840 M391.385 184.517 C 391.385 185.573,391.430 186.004,391.485 185.477 C 391.540 184.949,391.540 184.085,391.485 183.557 C 391.430 183.029,391.385 183.461,391.385 184.517 M8.032 192.194 C 8.032 193.954,8.073 194.674,8.123 193.794 C 8.173 192.914,8.173 191.475,8.123 190.595 C 8.073 189.715,8.032 190.435,8.032 192.194 M391.919 200.128 C 391.919 203.013,391.956 204.194,392.002 202.751 C 392.047 201.308,392.047 198.948,392.002 197.505 C 391.956 196.062,391.919 197.242,391.919 200.128 M102.728 199.872 C 102.728 202.335,102.767 203.343,102.814 202.111 C 102.861 200.880,102.861 198.864,102.814 197.633 C 102.767 196.401,102.728 197.409,102.728 199.872 M8.032 208.061 C 8.032 209.821,8.073 210.541,8.123 209.661 C 8.173 208.781,8.173 207.342,8.123 206.462 C 8.073 205.582,8.032 206.302,8.032 208.061 M296.968 215.739 C 296.968 217.921,297.007 218.813,297.055 217.722 C 297.103 216.631,297.103 214.846,297.055 213.756 C 297.007 212.665,296.968 213.557,296.968 215.739 M209.853 213.039 C 209.853 213.109,210.198 213.345,210.621 213.564 C 211.043 213.782,211.388 213.903,211.388 213.833 C 211.388 213.762,211.043 213.526,210.621 213.308 C 210.198 213.089,209.853 212.968,209.853 213.039 M391.385 215.739 C 391.385 216.795,391.430 217.226,391.485 216.699 C 391.540 216.171,391.540 215.307,391.485 214.779 C 391.430 214.251,391.385 214.683,391.385 215.739 M8.193 217.424 C 8.195 217.834,8.315 218.343,8.459 218.554 C 8.646 218.829,8.672 218.648,8.549 217.914 C 8.336 216.645,8.188 216.440,8.193 217.424 M239.865 219.834 C 239.865 220.467,239.915 220.726,239.976 220.409 C 240.037 220.093,240.037 219.575,239.976 219.258 C 239.915 218.941,239.865 219.200,239.865 219.834 M390.825 221.668 C 390.804 222.044,390.721 222.562,390.640 222.820 C 390.500 223.263,390.508 223.264,390.784 222.834 C 390.944 222.584,391.028 222.066,390.970 221.683 L 390.864 220.985 390.825 221.668 M296.984 234.549 C 296.984 241.727,297.017 244.701,297.057 241.157 C 297.097 237.612,297.097 231.739,297.057 228.105 C 297.017 224.471,296.984 227.370,296.984 234.549 M238.116 224.248 L 237.364 225.080 238.196 224.328 C 238.653 223.915,239.028 223.541,239.028 223.497 C 239.028 223.299,238.816 223.473,238.116 224.248 M274.455 230.070 C 274.455 233.519,274.491 234.930,274.535 233.205 C 274.580 231.481,274.580 228.660,274.535 226.935 C 274.491 225.211,274.455 226.622,274.455 230.070 M308.953 232.374 C 308.953 232.866,309.005 233.068,309.070 232.821 C 309.134 232.575,309.134 232.172,309.070 231.926 C 309.005 231.679,308.953 231.881,308.953 232.374 M10.936 236.276 C 11.120 237.717,11.260 237.826,11.260 236.526 C 11.260 235.948,11.156 235.410,11.029 235.332 C 10.897 235.250,10.857 235.656,10.936 236.276 M11.520 239.433 C 11.522 239.702,11.641 240.096,11.784 240.307 C 11.974 240.587,11.997 240.484,11.872 239.923 C 11.661 238.982,11.515 238.778,11.520 239.433 M309.007 247.857 C 309.007 252.220,309.042 254.041,309.084 251.903 C 309.127 249.766,309.127 246.196,309.085 243.970 C 309.042 241.744,309.007 243.493,309.007 247.857 M386.978 243.677 C 386.962 243.912,386.882 244.315,386.801 244.573 C 386.661 245.017,386.669 245.018,386.946 244.586 C 387.107 244.335,387.187 243.932,387.123 243.690 C 387.019 243.294,387.005 243.292,386.978 243.677 M269.850 245.234 L 269.098 246.065 269.930 245.314 C 270.705 244.613,270.879 244.402,270.681 244.402 C 270.637 244.402,270.263 244.776,269.850 245.234 M383.651 255.961 C 383.635 256.196,383.555 256.599,383.474 256.857 C 383.334 257.301,383.342 257.302,383.619 256.870 C 383.780 256.619,383.860 256.216,383.796 255.974 C 383.692 255.578,383.678 255.577,383.651 255.961 M93.666 263.676 C 93.666 263.720,94.040 264.094,94.498 264.507 L 95.329 265.259 94.578 264.427 C 93.877 263.652,93.666 263.478,93.666 263.676 M198.537 283.490 C 199.281 283.542,200.432 283.542,201.096 283.489 C 201.760 283.437,201.152 283.394,199.744 283.395 C 198.337 283.395,197.793 283.438,198.537 283.490 M41.715 309.334 C 41.715 309.483,41.952 309.876,42.242 310.208 L 42.769 310.813 42.319 310.045 C 41.727 309.034,41.715 309.019,41.715 309.334 M348.480 321.710 C 348.084 322.262,347.811 322.713,347.874 322.713 C 348.050 322.713,349.392 320.899,349.290 320.798 C 349.241 320.749,348.876 321.159,348.480 321.710 M53.458 324.719 C 53.742 325.118,54.181 325.608,54.432 325.806 C 54.683 326.005,54.574 325.785,54.188 325.316 C 53.802 324.848,53.487 324.359,53.487 324.229 C 53.487 324.099,53.364 323.992,53.214 323.992 C 53.063 323.992,53.173 324.319,53.458 324.719 M71.145 342.781 C 71.145 343.051,71.916 343.780,72.055 343.642 C 72.119 343.577,71.941 343.315,71.659 343.060 C 71.376 342.804,71.145 342.679,71.145 342.781 M324.139 346.403 C 323.868 346.602,323.695 346.813,323.755 346.873 C 323.816 346.934,324.087 346.821,324.358 346.623 C 324.629 346.425,324.801 346.213,324.741 346.153 C 324.681 346.092,324.410 346.205,324.139 346.403 M77.287 348.241 C 77.287 348.349,77.518 348.581,77.799 348.757 C 78.081 348.933,78.311 348.988,78.311 348.880 C 78.311 348.772,78.081 348.540,77.799 348.364 C 77.518 348.188,77.287 348.133,77.287 348.241 M303.519 361.740 C 303.167 361.941,302.994 362.106,303.135 362.106 C 303.276 362.106,303.679 361.941,304.031 361.740 C 304.383 361.539,304.555 361.375,304.415 361.375 C 304.274 361.375,303.871 361.539,303.519 361.740 M159.693 388.216 C 159.904 388.359,160.298 388.478,160.567 388.480 C 161.222 388.485,161.018 388.339,160.077 388.128 C 159.516 388.003,159.413 388.026,159.693 388.216 M239.283 388.228 C 238.756 388.397,238.734 388.436,239.155 388.454 C 239.437 388.466,239.840 388.364,240.051 388.228 C 240.500 387.938,240.188 387.938,239.283 388.228 M162.785 388.831 C 163.052 389.061,164.809 389.200,164.674 388.980 C 164.592 388.848,164.110 388.740,163.602 388.740 C 163.094 388.740,162.727 388.781,162.785 388.831 M235.063 388.992 C 234.966 389.149,235.224 389.183,235.752 389.083 C 236.883 388.867,236.981 388.740,236.014 388.740 C 235.577 388.740,235.149 388.853,235.063 388.992 M176.839 391.078 C 176.839 391.200,177.127 391.299,177.479 391.299 C 177.831 391.299,178.119 391.255,178.119 391.201 C 178.119 391.147,177.831 391.047,177.479 390.980 C 177.127 390.913,176.839 390.957,176.839 391.078 M222.009 391.043 C 221.515 391.255,221.517 391.263,222.058 391.281 C 222.366 391.291,222.690 391.184,222.777 391.043 C 222.964 390.740,222.713 390.740,222.009 391.043 M181.459 391.568 C 181.801 391.785,183.712 391.927,183.472 391.718 C 183.413 391.667,182.853 391.560,182.227 391.480 C 181.491 391.385,181.219 391.417,181.459 391.568 M217.147 391.555 L 216.123 391.738 217.019 391.770 C 217.511 391.788,218.087 391.691,218.298 391.555 C 218.717 391.284,218.658 391.284,217.147 391.555 " stroke="none" fill="#7c7c7c" fill-rule="evenodd"></path><path id="path4" d="M184.456 8.626 C 184.774 8.688,185.235 8.685,185.480 8.621 C 185.724 8.557,185.464 8.507,184.901 8.510 C 184.338 8.513,184.138 8.565,184.456 8.626 M214.142 8.626 C 214.461 8.688,214.921 8.685,215.166 8.621 C 215.411 8.557,215.150 8.507,214.587 8.510 C 214.024 8.513,213.824 8.565,214.142 8.626 M296.956 150.352 C 296.955 151.619,296.998 152.169,297.052 151.575 C 297.106 150.981,297.106 149.945,297.053 149.272 C 297.001 148.599,296.957 149.085,296.956 150.352 M308.988 162.252 C 308.988 163.730,309.030 164.335,309.082 163.596 C 309.134 162.857,309.134 161.647,309.082 160.909 C 309.030 160.170,308.988 160.774,308.988 162.252 M102.727 191.555 C 102.727 193.807,102.766 194.694,102.814 193.526 C 102.861 192.358,102.861 190.515,102.813 189.431 C 102.765 188.347,102.726 189.303,102.727 191.555 M8.041 200.128 C 8.041 202.873,8.078 203.996,8.124 202.623 C 8.170 201.251,8.170 199.005,8.124 197.633 C 8.078 196.260,8.041 197.383,8.041 200.128 M102.727 208.317 C 102.727 210.640,102.766 211.590,102.814 210.429 C 102.861 209.267,102.861 207.367,102.814 206.206 C 102.766 205.045,102.727 205.995,102.727 208.317 M102.693 220.601 C 102.693 221.235,102.743 221.494,102.804 221.177 C 102.865 220.861,102.865 220.342,102.804 220.026 C 102.743 219.709,102.693 219.968,102.693 220.601 M308.985 237.748 C 308.985 239.085,309.029 239.632,309.081 238.964 C 309.134 238.295,309.134 237.201,309.081 236.532 C 309.029 235.864,308.985 236.411,308.985 237.748 M296.954 249.520 C 296.954 250.717,296.999 251.206,297.052 250.608 C 297.106 250.010,297.106 249.031,297.052 248.433 C 296.999 247.834,296.954 248.324,296.954 249.520 M215.035 391.731 C 215.282 391.795,215.685 391.795,215.931 391.731 C 216.177 391.667,215.976 391.614,215.483 391.614 C 214.990 391.614,214.789 391.667,215.035 391.731 " stroke="none" fill="#747474" fill-rule="evenodd"></path></g></svg>